<svg width="164" height="38" viewBox="0 0 164 38" fill="none" xmlns="http://www.w3.org/2000/svg">
<g filter="url(#filter0_dd_46_119)">
<path d="M27 2.1001H11C6.63695 2.1001 3.1 5.63705 3.1 10.0001V26.0001C3.1 30.3631 6.63695 33.9001 11 33.9001H27C31.3631 33.9001 34.9 30.3631 34.9 26.0001V10.0001C34.9 5.63705 31.3631 2.1001 27 2.1001Z" fill="white"/>
<path d="M27 2.1001H11C6.63695 2.1001 3.1 5.63705 3.1 10.0001V26.0001C3.1 30.3631 6.63695 33.9001 11 33.9001H27C31.3631 33.9001 34.9 30.3631 34.9 26.0001V10.0001C34.9 5.63705 31.3631 2.1001 27 2.1001Z" fill="url(#paint0_linear_46_119)"/>
<path d="M27 2.1001H11C6.63695 2.1001 3.1 5.63705 3.1 10.0001V26.0001C3.1 30.3631 6.63695 33.9001 11 33.9001H27C31.3631 33.9001 34.9 30.3631 34.9 26.0001V10.0001C34.9 5.63705 31.3631 2.1001 27 2.1001Z" stroke="#D0D5DD" stroke-width="0.2"/>
<path d="M18.3546 13.1827C22.7105 11.4503 27.4742 12.8184 29.6373 14.9132C30.106 15.3671 30.5041 15.8275 30.845 16.2851C31.0394 15.2107 31.0552 14.1405 30.8681 13.1055C30.1847 9.32649 26.6195 7.18561 23.4233 8.29149C20.2415 9.3924 19.0005 11.5321 19.0005 11.5321C19.0005 11.5321 17.7595 9.3924 14.5777 8.29149C11.3812 7.18561 7.81603 9.32672 7.1328 13.1055C6.62842 15.8944 7.58356 18.9391 9.61033 21.6298C10.0372 21.7732 10.4847 21.8809 10.9586 21.943C13.7978 22.3163 14.8184 21.557 16.0178 21.0486C16.8142 20.7112 17.4134 21.0942 17.3843 21.3626C17.3392 21.7786 15.7693 22.4895 16.106 22.6388C17.4351 23.2284 19.0718 23.2334 20.3053 22.18C21.838 20.8712 22.4114 21.7658 22.4114 21.7658C22.4114 21.7658 21.6502 23.7076 19.3581 24.6717C17.4457 25.4761 15.4419 25.6743 13.6107 25.4683C15.19 26.5846 17.0035 27.5204 19.0005 28.1882C24.7099 26.2784 28.9276 22.1871 30.4145 17.9096C29.4072 16.9157 28.1716 16.2995 26.6988 16.0763C23.8674 15.647 22.8322 16.3862 21.6228 16.8708C20.8198 17.1926 20.2285 16.7978 20.263 16.5299C20.3161 16.1148 21.8999 15.4351 21.5661 15.279C20.249 14.6633 18.6125 14.626 17.3585 15.6548C15.8003 16.9332 15.2446 16.0274 15.2446 16.0274C15.2446 16.0274 16.0438 14.1015 18.3546 13.1827ZM17.2709 18.5051H18.3709V17.4052H19.6296V18.5051H20.7296V19.7639H19.6296V20.8638H18.3709V19.7639H17.2709V18.5051Z" fill="url(#paint1_linear_46_119)"/>
<path d="M17.2709 18.5052H18.3709V17.4052H19.6296V18.5052H20.7295V19.7639H19.6378C21.2597 20.5834 24.2383 21.8027 27.8177 22.3451C28.9956 20.9517 29.8813 19.4428 30.4143 17.9096C29.4069 16.9157 28.1713 16.2996 26.6986 16.0763C23.8672 15.647 22.8319 16.3863 21.6226 16.8708C20.8196 17.1926 20.2282 16.7978 20.2627 16.5299C20.3159 16.1148 21.8997 15.4351 21.5659 15.279C20.2488 14.6633 18.6123 14.626 17.3583 15.6548C15.8 16.9332 15.2443 16.0274 15.2443 16.0274C15.2443 16.0274 16.0438 14.1013 18.3543 13.1823C22.7102 11.4499 27.4739 12.818 29.637 14.9128C30.1057 15.3666 30.5038 15.8271 30.8447 16.2847C31.0392 15.2102 31.055 14.14 30.8679 13.105C30.1844 9.326 26.6192 7.18512 23.423 8.291C20.2412 9.39191 19.0002 11.5316 19.0002 11.5316C19.0002 11.5316 17.7592 9.39191 14.5774 8.291C12.7519 7.65927 10.8067 8.0883 9.34619 9.27521C10.0323 10.7442 10.836 12.1168 13.1254 14.8773C14.9868 17.1222 17.2709 18.5052 17.2709 18.5052Z" fill="url(#paint2_linear_46_119)"/>
<path opacity="0.31" d="M27.277 9.64955C24.2712 8.13945 21.169 10.4891 20.1851 11.7299C21.882 11.3725 23.3668 11.1891 25.2457 11.5839C28.0252 12.1679 29.0654 13.1715 30.3064 14.6542C30.0871 11.9069 28.3519 10.1896 27.277 9.64955Z" fill="url(#paint3_linear_46_119)"/>
</g>
<path d="M50.6364 26H44.7216V8.54545H50.7557C52.4886 8.54545 53.9773 8.89489 55.2216 9.59375C56.4716 10.2869 57.4318 11.2841 58.1023 12.5852C58.7727 13.8864 59.108 15.4432 59.108 17.2557C59.108 19.0739 58.7699 20.6364 58.0938 21.9432C57.4233 23.25 56.4545 24.2528 55.1875 24.9517C53.9261 25.6506 52.4091 26 50.6364 26ZM47.8835 23.2642H50.483C51.6989 23.2642 52.7131 23.0426 53.5256 22.5994C54.3381 22.1506 54.9489 21.483 55.358 20.5966C55.767 19.7045 55.9716 18.5909 55.9716 17.2557C55.9716 15.9205 55.767 14.8125 55.358 13.9318C54.9489 13.0455 54.3438 12.3835 53.5426 11.946C52.7472 11.5028 51.7585 11.2812 50.5767 11.2812H47.8835V23.2642ZM67.6861 26.2557C66.4077 26.2557 65.2997 25.9744 64.3622 25.4119C63.4247 24.8494 62.6974 24.0625 62.1804 23.0511C61.669 22.0398 61.4134 20.858 61.4134 19.5057C61.4134 18.1534 61.669 16.9687 62.1804 15.9517C62.6974 14.9347 63.4247 14.1449 64.3622 13.5824C65.2997 13.0199 66.4077 12.7386 67.6861 12.7386C68.9645 12.7386 70.0724 13.0199 71.0099 13.5824C71.9474 14.1449 72.6719 14.9347 73.1832 15.9517C73.7003 16.9687 73.9588 18.1534 73.9588 19.5057C73.9588 20.858 73.7003 22.0398 73.1832 23.0511C72.6719 24.0625 71.9474 24.8494 71.0099 25.4119C70.0724 25.9744 68.9645 26.2557 67.6861 26.2557ZM67.7031 23.7841C68.3963 23.7841 68.9759 23.5937 69.4418 23.2131C69.9077 22.8267 70.2543 22.3097 70.4815 21.6619C70.7145 21.0142 70.831 20.2926 70.831 19.4972C70.831 18.696 70.7145 17.9716 70.4815 17.3239C70.2543 16.6705 69.9077 16.1506 69.4418 15.7642C68.9759 15.3778 68.3963 15.1847 67.7031 15.1847C66.9929 15.1847 66.402 15.3778 65.9304 15.7642C65.4645 16.1506 65.1151 16.6705 64.8821 17.3239C64.6548 17.9716 64.5412 18.696 64.5412 19.4972C64.5412 20.2926 64.6548 21.0142 64.8821 21.6619C65.1151 22.3097 65.4645 22.8267 65.9304 23.2131C66.402 23.5937 66.9929 23.7841 67.7031 23.7841ZM82.2876 26.2557C80.9808 26.2557 79.8587 25.9688 78.9212 25.3949C77.9893 24.821 77.2706 24.0284 76.7649 23.017C76.2649 22 76.0149 20.8295 76.0149 19.5057C76.0149 18.1761 76.2706 17.0028 76.782 15.9858C77.2933 14.9631 78.0149 14.1676 78.9467 13.5994C79.8842 13.0256 80.9922 12.7386 82.2706 12.7386C83.3331 12.7386 84.2734 12.9347 85.0916 13.3267C85.9155 13.7131 86.5717 14.2614 87.0604 14.9716C87.549 15.6761 87.8274 16.5 87.8956 17.4432H84.9467C84.8274 16.8125 84.5433 16.2869 84.0945 15.8665C83.6513 15.4403 83.0575 15.2273 82.3132 15.2273C81.6825 15.2273 81.1286 15.3977 80.6513 15.7386C80.174 16.0739 79.8018 16.5568 79.5348 17.1875C79.2734 17.8182 79.1428 18.5739 79.1428 19.4545C79.1428 20.3466 79.2734 21.1136 79.5348 21.7557C79.7962 22.392 80.1626 22.8835 80.6342 23.2301C81.1115 23.571 81.6712 23.7415 82.3132 23.7415C82.7678 23.7415 83.174 23.6562 83.532 23.4858C83.8956 23.3097 84.1996 23.0568 84.4439 22.7273C84.6882 22.3977 84.8558 21.9972 84.9467 21.5256H87.8956C87.8217 22.4517 87.549 23.2727 87.0774 23.9886C86.6058 24.6989 85.9638 25.2557 85.1513 25.6591C84.3388 26.0568 83.3842 26.2557 82.2876 26.2557ZM90.5653 26V8.54545H101.747V11.196H93.7273V15.9347H100.98V18.5852H93.7273V26H90.5653ZM107.577 8.54545V26H104.491V8.54545H107.577ZM116.46 26.2557C115.181 26.2557 114.073 25.9744 113.136 25.4119C112.198 24.8494 111.471 24.0625 110.954 23.0511C110.442 22.0398 110.187 20.858 110.187 19.5057C110.187 18.1534 110.442 16.9687 110.954 15.9517C111.471 14.9347 112.198 14.1449 113.136 13.5824C114.073 13.0199 115.181 12.7386 116.46 12.7386C117.738 12.7386 118.846 13.0199 119.783 13.5824C120.721 14.1449 121.445 14.9347 121.957 15.9517C122.474 16.9687 122.732 18.1534 122.732 19.5057C122.732 20.858 122.474 22.0398 121.957 23.0511C121.445 24.0625 120.721 24.8494 119.783 25.4119C118.846 25.9744 117.738 26.2557 116.46 26.2557ZM116.477 23.7841C117.17 23.7841 117.749 23.5937 118.215 23.2131C118.681 22.8267 119.028 22.3097 119.255 21.6619C119.488 21.0142 119.604 20.2926 119.604 19.4972C119.604 18.696 119.488 17.9716 119.255 17.3239C119.028 16.6705 118.681 16.1506 118.215 15.7642C117.749 15.3778 117.17 15.1847 116.477 15.1847C115.766 15.1847 115.175 15.3778 114.704 15.7642C114.238 16.1506 113.888 16.6705 113.656 17.3239C113.428 17.9716 113.315 18.696 113.315 19.4972C113.315 20.2926 113.428 21.0142 113.656 21.6619C113.888 22.3097 114.238 22.8267 114.704 23.2131C115.175 23.5937 115.766 23.7841 116.477 23.7841ZM127.678 26L123.979 12.9091H127.124L129.425 22.1136H129.544L131.896 12.9091H135.007L137.359 22.0625H137.487L139.754 12.9091H142.908L139.2 26H135.987L133.533 17.1534H133.354L130.899 26H127.678Z" fill="white"/>
<defs>
<filter id="filter0_dd_46_119" x="0" y="0" width="38" height="38" filterUnits="userSpaceOnUse" color-interpolation-filters="sRGB">
<feFlood flood-opacity="0" result="BackgroundImageFix"/>
<feColorMatrix in="SourceAlpha" type="matrix" values="0 0 0 0 0 0 0 0 0 0 0 0 0 0 0 0 0 0 127 0" result="hardAlpha"/>
<feOffset dy="1"/>
<feGaussianBlur stdDeviation="1"/>
<feColorMatrix type="matrix" values="0 0 0 0 0.0627451 0 0 0 0 0.0941176 0 0 0 0 0.156863 0 0 0 0.06 0"/>
<feBlend mode="normal" in2="BackgroundImageFix" result="effect1_dropShadow_46_119"/>
<feColorMatrix in="SourceAlpha" type="matrix" values="0 0 0 0 0 0 0 0 0 0 0 0 0 0 0 0 0 0 127 0" result="hardAlpha"/>
<feOffset dy="1"/>
<feGaussianBlur stdDeviation="1.5"/>
<feColorMatrix type="matrix" values="0 0 0 0 0.0627451 0 0 0 0 0.0941176 0 0 0 0 0.156863 0 0 0 0.1 0"/>
<feBlend mode="normal" in2="effect1_dropShadow_46_119" result="effect2_dropShadow_46_119"/>
<feBlend mode="normal" in="SourceGraphic" in2="effect2_dropShadow_46_119" result="shape"/>
</filter>
<linearGradient id="paint0_linear_46_119" x1="19" y1="2.0001" x2="19" y2="34.0001" gradientUnits="userSpaceOnUse">
<stop stop-color="white"/>
<stop offset="1" stop-color="#D0D5DD"/>
</linearGradient>
<linearGradient id="paint1_linear_46_119" x1="10.1989" y1="24.2137" x2="27.8347" y2="6.57791" gradientUnits="userSpaceOnUse">
<stop stop-color="#0076C1"/>
<stop offset="0.0737" stop-color="#0B82C6"/>
<stop offset="0.2766" stop-color="#269ED3"/>
<stop offset="0.4546" stop-color="#36AFDA"/>
<stop offset="0.587" stop-color="#3CB5DD"/>
</linearGradient>
<linearGradient id="paint2_linear_46_119" x1="10.1388" y1="24.2537" x2="27.8274" y2="6.56509" gradientUnits="userSpaceOnUse">
<stop stop-color="#00A482"/>
<stop offset="1" stop-color="#79DD83"/>
</linearGradient>
<linearGradient id="paint3_linear_46_119" x1="24.8608" y1="13.5073" x2="28.5288" y2="10.1132" gradientUnits="userSpaceOnUse">
<stop stop-color="#00A482"/>
<stop offset="1" stop-color="#79DD83"/>
</linearGradient>
</defs>
</svg>
